<mxfile host="app.diagrams.net" modified="2023-05-19T02:25:46.880Z" agent="Mozilla/5.0 (Windows NT 10.0; Win64; x64) AppleWebKit/537.36 (KHTML, like Gecko) Chrome/113.0.0.0 Safari/537.36 Edg/113.0.1774.42" etag="_KLqDuqZxRFYXdLlZdT3" version="21.3.2" type="github">
  <diagram name="Страница 1" id="wOvqOKBowwi2QsThpKT6">
    <mxGraphModel dx="788" dy="450" grid="0" gridSize="10" guides="1" tooltips="1" connect="1" arrows="1" fold="1" page="1" pageScale="1" pageWidth="827" pageHeight="1169" math="0" shadow="0">
      <root>
        <mxCell id="0" />
        <mxCell id="1" parent="0" />
        <mxCell id="rLrytm_LFb3IoImcYMSb-1" value="Пользователь" style="shape=umlActor;verticalLabelPosition=bottom;verticalAlign=top;html=1;outlineConnect=0;" vertex="1" parent="1">
          <mxGeometry x="70" y="285" width="30" height="60" as="geometry" />
        </mxCell>
        <mxCell id="rLrytm_LFb3IoImcYMSb-3" value="" style="rounded=1;whiteSpace=wrap;html=1;" vertex="1" parent="1">
          <mxGeometry x="150" y="200" width="120" height="200" as="geometry" />
        </mxCell>
        <mxCell id="rLrytm_LFb3IoImcYMSb-4" value="" style="rounded=1;whiteSpace=wrap;html=1;" vertex="1" parent="1">
          <mxGeometry x="294" y="200" width="176" height="200" as="geometry" />
        </mxCell>
        <mxCell id="rLrytm_LFb3IoImcYMSb-5" value="Канал&amp;nbsp;" style="text;html=1;strokeColor=none;fillColor=none;align=center;verticalAlign=middle;whiteSpace=wrap;rounded=0;" vertex="1" parent="1">
          <mxGeometry x="180" y="200" width="60" height="30" as="geometry" />
        </mxCell>
        <mxCell id="rLrytm_LFb3IoImcYMSb-7" value="Платформа DialogFlow" style="text;html=1;strokeColor=none;fillColor=none;align=center;verticalAlign=middle;whiteSpace=wrap;rounded=0;" vertex="1" parent="1">
          <mxGeometry x="310" y="200" width="150" height="30" as="geometry" />
        </mxCell>
        <mxCell id="rLrytm_LFb3IoImcYMSb-8" value="" style="rounded=1;whiteSpace=wrap;html=1;" vertex="1" parent="1">
          <mxGeometry x="320" y="240" width="120" height="80" as="geometry" />
        </mxCell>
        <mxCell id="rLrytm_LFb3IoImcYMSb-9" value="&lt;font style=&quot;font-size: 10px;&quot;&gt;Связь&lt;/font&gt;" style="rounded=0;whiteSpace=wrap;html=1;" vertex="1" parent="1">
          <mxGeometry x="330" y="250" width="40" height="30" as="geometry" />
        </mxCell>
        <mxCell id="rLrytm_LFb3IoImcYMSb-10" value="&lt;font style=&quot;font-size: 10px;&quot;&gt;Речь&lt;/font&gt;" style="rounded=0;whiteSpace=wrap;html=1;" vertex="1" parent="1">
          <mxGeometry x="330" y="285" width="40" height="25" as="geometry" />
        </mxCell>
        <mxCell id="rLrytm_LFb3IoImcYMSb-11" value="&lt;font style=&quot;font-size: 10px;&quot;&gt;Хранилище&lt;/font&gt;" style="rounded=0;whiteSpace=wrap;html=1;" vertex="1" parent="1">
          <mxGeometry x="379" y="330" width="61" height="30" as="geometry" />
        </mxCell>
        <mxCell id="rLrytm_LFb3IoImcYMSb-12" value="&lt;span style=&quot;font-size: 10px;&quot;&gt;ML&lt;/span&gt;" style="rounded=0;whiteSpace=wrap;html=1;" vertex="1" parent="1">
          <mxGeometry x="330" y="330" width="40" height="30" as="geometry" />
        </mxCell>
        <mxCell id="rLrytm_LFb3IoImcYMSb-13" value="" style="endArrow=none;html=1;rounded=0;entryX=0.25;entryY=1;entryDx=0;entryDy=0;exitX=0.5;exitY=0;exitDx=0;exitDy=0;" edge="1" parent="1" source="rLrytm_LFb3IoImcYMSb-12" target="rLrytm_LFb3IoImcYMSb-8">
          <mxGeometry width="50" height="50" relative="1" as="geometry">
            <mxPoint x="320" y="370" as="sourcePoint" />
            <mxPoint x="370" y="320" as="targetPoint" />
          </mxGeometry>
        </mxCell>
        <mxCell id="rLrytm_LFb3IoImcYMSb-14" value="" style="endArrow=none;html=1;rounded=0;entryX=0.75;entryY=1;entryDx=0;entryDy=0;" edge="1" parent="1" target="rLrytm_LFb3IoImcYMSb-8">
          <mxGeometry width="50" height="50" relative="1" as="geometry">
            <mxPoint x="410" y="330" as="sourcePoint" />
            <mxPoint x="460" y="280" as="targetPoint" />
          </mxGeometry>
        </mxCell>
        <mxCell id="rLrytm_LFb3IoImcYMSb-15" value="&lt;span style=&quot;font-size: 10px;&quot;&gt;Приложение&lt;/span&gt;" style="rounded=0;whiteSpace=wrap;html=1;" vertex="1" parent="1">
          <mxGeometry x="160" y="250" width="80" height="30" as="geometry" />
        </mxCell>
        <mxCell id="rLrytm_LFb3IoImcYMSb-16" value="&lt;span style=&quot;font-size: 10px;&quot;&gt;Чат-бот&lt;/span&gt;" style="rounded=0;whiteSpace=wrap;html=1;" vertex="1" parent="1">
          <mxGeometry x="170" y="305" width="50" height="30" as="geometry" />
        </mxCell>
        <mxCell id="rLrytm_LFb3IoImcYMSb-17" value="" style="endArrow=none;html=1;rounded=0;entryX=0.01;entryY=0.324;entryDx=0;entryDy=0;entryPerimeter=0;" edge="1" parent="1" source="rLrytm_LFb3IoImcYMSb-1" target="rLrytm_LFb3IoImcYMSb-16">
          <mxGeometry width="50" height="50" relative="1" as="geometry">
            <mxPoint x="100" y="330" as="sourcePoint" />
            <mxPoint x="150" y="280" as="targetPoint" />
          </mxGeometry>
        </mxCell>
        <mxCell id="rLrytm_LFb3IoImcYMSb-18" value="" style="endArrow=none;html=1;rounded=0;exitX=0.566;exitY=0.018;exitDx=0;exitDy=0;exitPerimeter=0;entryX=0.478;entryY=0.979;entryDx=0;entryDy=0;entryPerimeter=0;" edge="1" parent="1" source="rLrytm_LFb3IoImcYMSb-16" target="rLrytm_LFb3IoImcYMSb-15">
          <mxGeometry width="50" height="50" relative="1" as="geometry">
            <mxPoint x="200" y="300" as="sourcePoint" />
            <mxPoint x="198" y="270" as="targetPoint" />
          </mxGeometry>
        </mxCell>
        <mxCell id="rLrytm_LFb3IoImcYMSb-20" value="" style="endArrow=none;html=1;rounded=0;entryX=0;entryY=0.5;entryDx=0;entryDy=0;exitX=1;exitY=0.5;exitDx=0;exitDy=0;" edge="1" parent="1" source="rLrytm_LFb3IoImcYMSb-15" target="rLrytm_LFb3IoImcYMSb-9">
          <mxGeometry width="50" height="50" relative="1" as="geometry">
            <mxPoint x="210" y="300" as="sourcePoint" />
            <mxPoint x="260" y="250" as="targetPoint" />
          </mxGeometry>
        </mxCell>
        <mxCell id="rLrytm_LFb3IoImcYMSb-21" value="Ядро" style="text;html=1;strokeColor=none;fillColor=none;align=center;verticalAlign=middle;whiteSpace=wrap;rounded=0;" vertex="1" parent="1">
          <mxGeometry x="396" y="240" width="36" height="15" as="geometry" />
        </mxCell>
      </root>
    </mxGraphModel>
  </diagram>
</mxfile>
